<?xml version="1.0" encoding="UTF-8"?>
<svg version="1.1" xmlns="http://www.w3.org/2000/svg" width="500" height="500">
<path d="M0 0 C4.54260305 0.64566856 8.39064742 2.4159853 12.48828125 4.37890625 C13.19147995 4.71043198 13.89467865 5.0419577 14.6191864 5.38352966 C16.85277997 6.4380161 19.08264821 7.50012751 21.3125 8.5625 C22.83114031 9.28110616 24.35001808 9.99921071 25.86914062 10.71679688 C29.58220221 12.47206752 33.291943 14.23418316 37 16 C36.39452355 20.06707874 35.78589611 22.8511817 33.4375 26.25 C31.48352426 28.89003008 31.48352426 28.89003008 31 32 C35.29 33.98 39.58 35.96 44 38 C44.66 37.01 45.32 36.02 46 35 C43.69 33.68 41.38 32.36 39 31 C39.46800711 26.94393835 39.87953208 23.53411321 42 20 C46.09890675 20.62824101 49.3629147 21.97831689 53.078125 23.80078125 C54.23957031 24.36603516 55.40101563 24.93128906 56.59765625 25.51367188 C57.81524421 26.11299682 59.03269134 26.71260796 60.25 27.3125 C62.62905527 28.47764023 65.00977933 29.63929687 67.390625 30.80078125 C68.52177734 31.36361816 69.65292969 31.92645508 70.81835938 32.50634766 C73.5789131 33.80231663 76.29643263 34.79820539 79.171875 35.79296875 C81.65963047 36.90509129 82.73297223 37.52816862 84.08227539 39.91235352 C84.9354861 42.59034051 85.47546965 45.23820507 86 48 C86.44464317 49.85255492 86.88968025 51.70502815 87.34274292 53.55554199 C87.99520228 56.25404476 88.60675927 58.96112814 89.21704102 61.66943359 C89.69017285 63.76182045 90.17396006 65.85156654 90.65820312 67.94140625 C90.96419056 69.28891532 91.26955152 70.63656683 91.57421875 71.984375 C91.98546997 73.78986816 91.98546997 73.78986816 92.4050293 75.63183594 C92.97137971 78.83797885 93.11295125 81.7531932 93 85 C91.02 85.66 89.04 86.32 87 87 C87.144375 87.71285156 87.28875 88.42570312 87.4375 89.16015625 C88.4797232 94.53773843 89.2433952 99.52360792 89 105 C86.03 105.33 83.06 105.66 80 106 C78.50178941 102.62902617 78 100.79557881 78 97 C75.03 97.66 72.06 98.32 69 99 C68.78065796 98.00818726 68.78065796 98.00818726 68.55688477 96.99633789 C67.89588968 94.01753377 67.22927255 91.04001597 66.5625 88.0625 C66.21735352 86.50112305 66.21735352 86.50112305 65.86523438 84.90820312 C65.53168945 83.42416992 65.53168945 83.42416992 65.19140625 81.91015625 C64.98717041 80.99371338 64.78293457 80.07727051 64.57250977 79.13305664 C64.19918053 77.03263495 64.19918053 77.03263495 63 76 C62.29423828 77.53720703 62.29423828 77.53720703 61.57421875 79.10546875 C60.9454605 80.46621423 60.31654596 81.8268875 59.6875 83.1875 C59.2244043 84.19780273 59.2244043 84.19780273 58.75195312 85.22851562 C58.44580078 85.88916016 58.13964844 86.54980469 57.82421875 87.23046875 C57.54666748 87.83270264 57.26911621 88.43493652 56.9831543 89.05541992 C56.65871338 89.69713135 56.33427246 90.33884277 56 91 C55.68361572 91.84272461 55.36723145 92.68544922 55.04125977 93.55371094 C51.74080944 97.50904072 47.41157305 97.85117553 42.515625 98.91015625 C41.45200745 99.15758072 40.38838989 99.40500519 39.2925415 99.65992737 C37.02220215 100.18674388 34.74987884 100.70507022 32.47583008 101.21563721 C27.9677937 102.23292975 23.47426465 103.30742484 18.97927856 104.38064575 C13.23977784 105.74819842 7.4944412 107.09088114 1.75 108.4375 C-16.82573752 112.76585334 -16.82573752 112.76585334 -35.3359375 117.36328125 C-36.60920898 117.69078369 -37.88248047 118.01828613 -39.19433594 118.35571289 C-41.36437409 118.9213868 -43.53205995 119.49623289 -45.69628906 120.08374023 C-48.45419409 120.80590207 -51.20857196 121.42167941 -54 122 C-55.24269653 122.26417725 -55.24269653 122.26417725 -56.51049805 122.53369141 C-68.57323126 124.24563062 -80.06092289 120.28871691 -91.6484375 117.296875 C-94.03407631 116.69570287 -96.42012124 116.09614026 -98.80654907 115.49810791 C-103.78712009 114.2457221 -108.76416317 112.98045866 -113.73876953 111.70458984 C-120.10618018 110.0716354 -126.4790232 108.46129554 -132.85428429 106.85929489 C-138.95430758 105.32542796 -145.05146329 103.78030873 -151.1484375 102.234375 C-152.88471972 101.79564182 -152.88471972 101.79564182 -154.65607834 101.34804535 C-157.93818965 100.51654028 -161.21814998 99.67705374 -164.49755859 98.83496094 C-165.46184784 98.59170578 -166.42613708 98.34845062 -167.41964722 98.0978241 C-180.46698042 94.72198511 -180.46698042 94.72198511 -183.52905273 91.2824707 C-183.82755127 90.66976318 -184.1260498 90.05705566 -184.43359375 89.42578125 C-184.74095459 88.82419189 -185.04831543 88.22260254 -185.36499023 87.6027832 C-185.71891846 86.84698975 -186.07284668 86.09119629 -186.4375 85.3125 C-187.613125 82.899375 -188.78875 80.48625 -190 78 C-191.65 84.93 -193.3 91.86 -195 99 C-197.64 98.67 -200.28 98.34 -203 98 C-202.030625 98.433125 -201.06125 98.86625 -200.0625 99.3125 C-197 101 -197 101 -196 104 C-196.39342756 106.30119717 -196.88767779 108.58560765 -197.43359375 110.85546875 C-197.66877464 111.84792351 -197.66877464 111.84792351 -197.90870667 112.86042786 C-198.41076132 114.9713384 -198.92396835 117.07935533 -199.4375 119.1875 C-199.78003527 120.61896413 -200.12184104 122.05060304 -200.46289062 123.48242188 C-201.30014109 126.99034809 -202.1474136 130.49576556 -203 134 C-205.97 133.34 -208.94 132.68 -212 132 C-213.0006493 127.99740281 -212.92247176 126.65036935 -212.00390625 122.796875 C-211.77509766 121.8171875 -211.54628906 120.8375 -211.31054688 119.828125 C-211.06369141 118.81234375 -210.81683594 117.7965625 -210.5625 116.75 C-210.31951172 115.71875 -210.07652344 114.6875 -209.82617188 113.625 C-209.22557219 111.08128367 -208.61658359 108.53988059 -208 106 C-209.98 105.67 -211.96 105.34 -214 105 C-214.09796875 105.6084375 -214.1959375 106.216875 -214.296875 106.84375 C-215.74779906 115.34916691 -217.8425027 123.65278958 -220 132 C-226.0546875 131.609375 -226.0546875 131.609375 -228 131 C-229.3527832 129.44946289 -229.3527832 129.44946289 -230 127 C-229.62654592 124.24964891 -229.14414553 121.73815732 -228.48046875 119.05859375 C-228.30244217 118.29450699 -228.12441559 117.53042023 -227.94099426 116.74317932 C-227.36941498 114.3046912 -226.77858876 111.87132419 -226.1875 109.4375 C-225.8001942 107.79521336 -225.41411226 106.15263759 -225.02929688 104.50976562 C-222.27317229 92.81951688 -222.27317229 92.81951688 -221 89 C-215.0870696 89.64270983 -209.65755469 91.19003784 -204 93 C-203.93941406 92.39671875 -203.87882812 91.7934375 -203.81640625 91.171875 C-203.69072266 89.97304687 -203.69072266 89.97304687 -203.5625 88.75 C-203.48128906 87.96109375 -203.40007812 87.1721875 -203.31640625 86.359375 C-203.02365007 84.17635361 -202.57935581 82.1226818 -202 80 C-203.98 79.34 -205.96 78.68 -208 78 C-208.33 80.64 -208.66 83.28 -209 86 C-212.81489674 87.46726798 -215.29011622 86.43336419 -219 85 C-218.38333172 76.35795856 -216.78508887 68.01784948 -214.94604492 59.56665039 C-214.60571989 57.9744913 -214.27930406 56.37929835 -213.96655273 54.78149414 C-211.39630401 41.67577046 -211.39630401 41.67577046 -208.34228516 38.01049805 C-206.27662709 36.66620195 -204.31364961 35.84608101 -202 35 C-200.15153224 34.0915686 -198.30807476 33.17289746 -196.46875 32.24609375 C-194.48149265 31.30496857 -192.49186044 30.36884331 -190.5 29.4375 C-188.51011495 28.4993376 -186.52052592 27.56054704 -184.53125 26.62109375 C-183.58894531 26.17878418 -182.64664063 25.73647461 -181.67578125 25.28076172 C-179.24730105 24.11837056 -176.85772282 22.90104638 -174.46875 21.66015625 C-171 20 -171 20 -168 20 C-167.01 21.98 -166.02 23.96 -165 26 C-159.72 23.69 -154.44 21.38 -149 19 C-144.5 26.875 -144.5 26.875 -145 31 C-146.98 31.99 -148.96 32.98 -151 34 C-150.505 37.96 -150.505 37.96 -150 42 C-159.10362168 46.87720371 -168.20857538 51.74118561 -177.5625 56.125 C-178.49848022 56.56694702 -178.49848022 56.56694702 -179.45336914 57.01782227 C-183.74637896 59 -183.74637896 59 -186 59 C-186 59.66 -186 60.32 -186 61 C-182.5573069 62.47982218 -179.31624012 63.44153645 -175.6328125 64.11328125 C-174.59366699 64.30680176 -173.55452148 64.50032227 -172.48388672 64.69970703 C-171.3754541 64.90192871 -170.26702148 65.10415039 -169.125 65.3125 C-160.34329886 66.95376712 -151.59692997 68.69063574 -142.875 70.625 C-136.59713641 72.01495442 -130.32618493 73.34860847 -124 74.5 C-117.67371697 75.65140939 -111.40342341 76.98733326 -105.125 78.375 C-101.08485813 79.25713889 -97.04286515 80.13043306 -93 81 C-91.88544434 81.24105469 -90.77088867 81.48210937 -89.62255859 81.73046875 C-86.18950661 82.46414714 -82.75204082 83.17243653 -79.3125 83.875 C-77.73782959 84.2160376 -77.73782959 84.2160376 -76.13134766 84.56396484 C-64.25370444 86.93798737 -53.95450435 85.00431297 -42.375 82 C-39.80837376 81.3570805 -37.24122 80.71776909 -34.671875 80.0859375 C-33.98876251 79.91782562 -33.30565002 79.74971375 -32.60183716 79.57650757 C-23.65258877 77.39753673 -14.63640319 75.52633246 -5.625 73.625 C8.92707377 70.54732156 23.44598886 67.35178503 37.9375 64 C38.78568298 63.80432434 39.63386597 63.60864868 40.50775146 63.40704346 C42.8897805 62.85681566 45.2712113 62.30409364 47.65234375 61.75 C48.35653946 61.58688324 49.06073517 61.42376648 49.78627014 61.25570679 C52.57393459 60.60298048 55.28169867 59.90610044 58 59 C57.00556885 58.53625977 56.0111377 58.07251953 54.98657227 57.59472656 C51.30273772 55.87219739 47.62803586 54.13091372 43.95581055 52.38378906 C42.36449483 51.62993104 40.7707409 50.88119778 39.17456055 50.13769531 C36.88191558 49.06869704 34.59864176 47.98163616 32.31640625 46.890625 C31.59973282 46.56128967 30.88305939 46.23195435 30.14466858 45.89263916 C25.18729322 43.49105563 25.18729322 43.49105563 24.24497986 41.02044678 C23.93215765 38.44047705 24.67354628 37.18474731 26 35 C25.01 34.67 24.02 34.34 23 34 C22.01 35.98 21.02 37.96 20 40 C16.85109339 38.61103023 13.70649679 37.21254373 10.5625 35.8125 C9.68400391 35.42513672 8.80550781 35.03777344 7.90039062 34.63867188 C2.08785221 32.04340565 -3.49064674 29.18873923 -9 26 C-6.25 17.25 -6.25 17.25 -4 15 C3.92 18.63 11.84 22.26 20 26 C20 24.68 20 23.36 20 22 C12.41 18.37 4.82 14.74 -3 11 C-3 5.34185541 -2.99466683 4.24244468 0 0 Z M-172 34 C-171.67 35.65 -171.34 37.3 -171 39 C-168.69 38.01 -166.38 37.02 -164 36 C-164.66 34.68 -165.32 33.36 -166 32 C-168.46278801 32 -169.85224119 32.85452863 -172 34 Z M76 79 C75.95936168 80.66617115 75.957279 82.33388095 76 84 C79.465 83.505 79.465 83.505 83 83 C82.67 81.35 82.34 79.7 82 78 C78.71069596 77.63314303 78.71069596 77.63314303 76 79 Z " fill="#000000" transform="translate(313,104)"/>
<path d="M0 0 C13.53 0 27.06 0 41 0 C41.27223807 15.44811438 41.49270675 30.89501742 41.62174606 46.34489155 C41.68328945 53.52076688 41.76698417 60.69503228 41.90527344 67.86987305 C42.025932 74.13303795 42.10254034 80.39503599 42.12906194 86.65933102 C42.14453784 89.96867836 42.18671011 93.27396522 42.26876068 96.58242226 C42.67001244 113.44864252 41.08232317 124.73075302 30.43535614 138.13837242 C28.35426404 140.83750634 26.66365157 143.68790073 24.9375 146.625 C22.36608863 150.87797046 22.36608863 150.87797046 19 152 C16.79312113 148.4262825 14.5877789 144.85162263 12.38378906 141.27612305 C11.63550172 140.06265363 10.88681211 138.84943216 10.13769531 137.63647461 C9.05425045 135.88201623 7.97230796 134.12663882 6.890625 132.37109375 C6.24125977 131.31849365 5.59189453 130.26589355 4.92285156 129.18139648 C4.28831055 128.13153564 3.65376953 127.0816748 3 126 C2.31003433 125.00775421 1.62006866 124.01550842 0.90919495 122.99319458 C-1.82268149 118.15948505 -1.53800445 113.35550822 -1.4699707 107.92749023 C-1.4721611 106.83395233 -1.4743515 105.74041443 -1.47660828 104.61373901 C-1.47891315 101.01171265 -1.45269617 97.41051069 -1.42578125 93.80859375 C-1.42085545 91.29948689 -1.4175578 88.79037635 -1.41581726 86.28126526 C-1.40818404 81.02831054 -1.38818571 75.7755643 -1.35668945 70.52270508 C-1.31638282 63.79185952 -1.29899492 57.06116613 -1.28938007 50.3302145 C-1.27940193 43.90631693 -1.25952419 37.4824625 -1.23828125 31.05859375 C-1.2348855 29.83395353 -1.23148975 28.60931332 -1.2279911 27.34756279 C-1.21639959 23.87936161 -1.19787596 20.4112715 -1.17700195 16.94311523 C-1.17431305 15.91905075 -1.17162415 14.89498627 -1.16885376 13.83988953 C-1.16169846 12.89095825 -1.15454315 11.94202698 -1.14717102 10.96434021 C-1.14289754 10.14566184 -1.13862406 9.32698347 -1.13422108 8.48349667 C-0.98025514 5.63466019 -0.46902933 2.81417595 0 0 Z " fill="#000000" transform="translate(232,248)"/>
<path d="M0 0 C0.92789085 0.45332199 0.92789085 0.45332199 1.87452698 0.915802 C3.8379869 1.87671027 5.79605783 2.84802957 7.75390625 3.8203125 C9.70916862 4.78331247 11.66550281 5.74408104 13.62257385 6.70339966 C15.40191311 7.57685062 17.17845872 8.45598592 18.95483398 9.33544922 C22.37528852 10.97351133 25.82107229 12.47566768 29.31640625 13.9453125 C28.85818157 17.41472796 28.42508942 20.61926299 27.31640625 23.9453125 C28.03183594 24.05746094 28.74726563 24.16960937 29.484375 24.28515625 C32.50756623 24.98987255 34.87963313 26.07819048 37.62890625 27.5078125 C38.51191406 27.96285156 39.39492188 28.41789062 40.3046875 28.88671875 C40.96855469 29.23605469 41.63242187 29.58539063 42.31640625 29.9453125 C41.80604794 34.334394 40.79426348 37.28239312 38.31640625 40.9453125 C35.31640625 39.9453125 32.31640625 38.9453125 29.31640625 37.9453125 C28.32640625 39.9253125 27.33640625 41.9053125 26.31640625 43.9453125 C21.84529781 43.32763892 18.21458745 41.55249953 14.2578125 39.49609375 C12.88908841 38.80581408 11.5199343 38.11638652 10.15039062 37.42773438 C8.00849744 36.34338404 5.87026359 35.25333094 3.73901367 34.14819336 C1.67061046 33.07933177 -0.40918133 32.03614384 -2.4921875 30.99609375 C-3.12362167 30.66080154 -3.75505585 30.32550934 -4.40562439 29.98005676 C-7.50710289 28.45391765 -9.28047851 27.86453969 -12.70654297 28.55102539 C-13.68896973 29.01114014 -14.67139648 29.47125488 -15.68359375 29.9453125 C-16.77115967 30.44434082 -17.85872559 30.94336914 -18.97924805 31.45751953 C-20.14367432 32.03356934 -21.30810059 32.60961914 -22.5078125 33.203125 C-23.79617272 33.83473995 -25.08458571 34.46624725 -26.37304688 35.09765625 C-28.38194159 36.08767508 -30.38986081 37.07960894 -32.39672852 38.07373047 C-34.34799163 39.03856518 -36.30266074 39.99620086 -38.2578125 40.953125 C-39.41885498 41.52691895 -40.57989746 42.10071289 -41.77612305 42.69189453 C-44.68359375 43.9453125 -44.68359375 43.9453125 -47.68359375 43.9453125 C-48.34359375 41.9653125 -49.00359375 39.9853125 -49.68359375 37.9453125 C-51.00359375 37.9453125 -52.32359375 37.9453125 -53.68359375 37.9453125 C-53.18859375 38.780625 -53.18859375 38.780625 -52.68359375 39.6328125 C-51.5488185 42.25698028 -51.60855789 44.11739861 -51.68359375 46.9453125 C-52.72257812 47.46480469 -53.7615625 47.98429687 -54.83203125 48.51953125 C-55.50339111 48.8554126 -56.17475098 49.19129395 -56.86645508 49.53735352 C-58.33178841 50.26961219 -59.79777609 51.00056287 -61.2644043 51.73022461 C-64.48225636 53.3329138 -67.68749178 54.94736913 -70.8671875 56.625 C-72.16849609 57.30949219 -72.16849609 57.30949219 -73.49609375 58.0078125 C-74.24503906 58.41128906 -74.99398437 58.81476563 -75.765625 59.23046875 C-77.68359375 59.9453125 -77.68359375 59.9453125 -80.68359375 58.9453125 C-82.90110774 55.24945584 -83.68359375 53.31522877 -83.68359375 48.9453125 C-81.14440369 47.64857648 -78.60245137 46.35783413 -76.05859375 45.0703125 C-75.34574219 44.70550781 -74.63289063 44.34070313 -73.8984375 43.96484375 C-69.89607538 41.94530323 -65.99442302 40.2372014 -61.68359375 38.9453125 C-62.34359375 37.6253125 -63.00359375 36.3053125 -63.68359375 34.9453125 C-64.7051355 35.44514648 -64.7051355 35.44514648 -65.74731445 35.95507812 C-68.8273174 37.45790307 -71.91161454 38.95169794 -74.99609375 40.4453125 C-76.06794922 40.96996094 -77.13980469 41.49460938 -78.24414062 42.03515625 C-79.27216797 42.53144531 -80.30019531 43.02773437 -81.359375 43.5390625 C-82.30723877 43.99990234 -83.25510254 44.46074219 -84.23168945 44.93554688 C-86.68359375 45.9453125 -86.68359375 45.9453125 -89.68359375 45.9453125 C-91.88092188 42.00843293 -92.86705014 39.43235013 -92.68359375 34.9453125 C-83.97498419 30.23677767 -75.22858637 25.61788911 -66.30859375 21.3203125 C-65.59002197 20.96582031 -64.8714502 20.61132812 -64.13110352 20.24609375 C-59.03514464 17.82812887 -59.03514464 17.82812887 -55.68359375 18.9453125 C-53.20266881 23.11326641 -51.89306836 27.29348707 -50.68359375 31.9453125 C-49.87921875 31.6771875 -49.07484375 31.4090625 -48.24609375 31.1328125 C-44.05859375 29.73697917 -39.87109375 28.34114583 -35.68359375 26.9453125 C-36.34359375 25.6253125 -37.00359375 24.3053125 -37.68359375 22.9453125 C-39.07578125 23.409375 -39.07578125 23.409375 -40.49609375 23.8828125 C-42.55859375 24.5703125 -44.62109375 25.2578125 -46.68359375 25.9453125 C-49.47935309 21.48957105 -50.80578308 19.24909324 -50.68359375 13.9453125 C-49.48984131 13.39387573 -49.48984131 13.39387573 -48.27197266 12.83129883 C-45.27074837 11.44402268 -42.27017952 10.05534697 -39.27001953 8.66577148 C-37.98055904 8.06887037 -36.69085248 7.47250047 -35.40087891 6.87670898 C-34.14791246 6.29793 -32.89528539 5.71841574 -31.64300537 5.13815308 C-30.40567835 4.56485429 -29.16759992 3.99317444 -27.92877197 3.42312622 C-23.49226363 1.36748297 -19.19008899 -0.87683299 -14.94287109 -3.2980957 C-9.57179817 -5.09677249 -4.79024032 -2.36445476 0 0 Z M16.31640625 21.9453125 C15.65640625 23.5953125 14.99640625 25.2453125 14.31640625 26.9453125 C16.62640625 27.6053125 18.93640625 28.2653125 21.31640625 28.9453125 C21.64640625 27.2953125 21.97640625 25.6453125 22.31640625 23.9453125 C20.33640625 23.2853125 18.35640625 22.6253125 16.31640625 21.9453125 Z " fill="#010101" transform="translate(260.68359375,77.0546875)"/>
<path d="M0 0 C5.75 3.75 5.75 3.75 8 6 C7.65844151 9.36236636 6.17873789 11.33821846 4.05859375 13.890625 C3.18364258 14.95410156 3.18364258 14.95410156 2.29101562 16.0390625 C1.37352539 17.13347656 1.37352539 17.13347656 0.4375 18.25 C-0.48579102 19.36761719 -0.48579102 19.36761719 -1.42773438 20.5078125 C-2.94583464 22.34365468 -4.47002437 24.17405355 -6 26 C-5.01 27.98 -5.01 27.98 -4 30 C-0.0146718 26.25620684 3.20895265 22.19714418 6.44921875 17.79296875 C6.96097656 17.20128906 7.47273438 16.60960937 8 16 C8.66 16 9.32 16 10 16 C10.2475 15.21625 10.495 14.4325 10.75 13.625 C12.15389099 10.67682892 13.00675737 10.0975223 16 9 C17.98 10.65 19.96 12.3 22 14 C21.46469282 18.11607815 20.29723677 20.29080487 17.625 23.4375 C15.10814891 26.45772131 12.60808426 29.47905314 10.19921875 32.5859375 C9.72081543 33.20283447 9.24241211 33.81973145 8.74951172 34.45532227 C7.8131992 35.665402 6.87854417 36.87676662 5.94580078 38.08959961 C3.16941305 41.65495351 0.26015175 44.86907949 -3 48 C-7.4819398 44.98330975 -10.73240387 42.35679484 -14 38 C-14.66 37.67 -15.32 37.34 -16 37 C-16.226875 37.53625 -16.45375 38.0725 -16.6875 38.625 C-17.87789009 40.77903921 -19.04500823 42.20238401 -20.6875 44 C-23.2524419 46.67429084 -23.2524419 46.67429084 -22.9375 49.3125 C-22.10678318 51.18189338 -22.10678318 51.18189338 -20 52 C-18.35 50.02 -16.7 48.04 -15 46 C-12.0280615 47.12451727 -9.66559313 48.22293791 -7 50 C-7.54031317 53.80195977 -8.43370293 55.98808607 -10.875 58.9375 C-11.50277344 59.7109375 -12.13054687 60.484375 -12.77734375 61.28125 C-13.87755859 62.62703125 -13.87755859 62.62703125 -15 64 C-16.821609 66.30537601 -18.62846545 68.62225039 -20.4375 70.9375 C-21.7772424 72.64721625 -23.11634481 74.34614671 -24.51293945 76.01000977 C-26.11092496 78.02244823 -26.11092496 78.02244823 -27.30541992 80.64428711 C-29.25286275 84.04455061 -30.71009316 85.81681056 -34 88 C-41.61925889 89.73307516 -49.69282942 88.97910119 -57.4375 88.6875 C-59.6086422 88.64588118 -61.77987484 88.60872579 -63.95117188 88.57617188 C-67.89883917 88.50147388 -71.84490059 88.41417696 -75.79077148 88.2722168 C-76.58160629 88.24427536 -77.3724411 88.21633392 -78.1872406 88.18754578 C-80 88 -80 88 -81 87 C-81 84.69 -81 82.38 -81 80 C-86.61 80 -92.22 80 -98 80 C-98.09765625 71.50390625 -98.09765625 71.50390625 -98 69 C-95.95301586 66.95301586 -91.69588759 67.29954307 -89 67 C-88.67 64.69 -88.34 62.38 -88 60 C-86.81035645 60.03778564 -85.62071289 60.07557129 -84.39501953 60.11450195 C-79.94040253 60.23843569 -75.48843431 60.27516222 -71.03222656 60.28686523 C-69.11162963 60.30380029 -67.19108215 60.34374246 -65.27148438 60.40795898 C-54.80555153 61.09167119 -54.80555153 61.09167119 -45.20101929 57.78344727 C-41.66487025 54.35206525 -39.38510612 50.27357625 -37 46 C-35.93949925 44.56694359 -34.85222962 43.15270416 -33.72265625 41.7734375 C-33.27212891 41.19722656 -32.82160156 40.62101562 -32.35742188 40.02734375 C-31.71643555 39.20943359 -31.71643555 39.20943359 -31.0625 38.375 C-30.3809082 37.49908203 -30.3809082 37.49908203 -29.68554688 36.60546875 C-27.58338258 33.92329124 -25.49812928 31.32499161 -23 29 C-22.236875 29.309375 -21.47375 29.61875 -20.6875 29.9375 C-18.81210323 30.67893593 -16.91315348 31.36228217 -15 32 C-14.67 31.34 -14.34 30.68 -14 30 C-14.639375 29.773125 -15.27875 29.54625 -15.9375 29.3125 C-18 28 -18 28 -18.80322266 25.66772461 C-19 23 -19 23 -17.90771484 20.96704102 C-17.06781006 19.99528931 -17.06781006 19.99528931 -16.2109375 19.00390625 C-15.59863281 18.28009766 -14.98632812 17.55628906 -14.35546875 16.81054688 C-13.70191406 16.06869141 -13.04835938 15.32683594 -12.375 14.5625 C-11.74464844 13.82451172 -11.11429687 13.08652344 -10.46484375 12.32617188 C-9.22966271 10.88170341 -7.98860156 9.44223871 -6.74121094 8.00830078 C-4.4544906 5.37081319 -2.22501317 2.6896232 0 0 Z M-77 71 C-77.38218767 72.65614657 -77.71395102 74.32457024 -78 76 C-76.87465895 77.35618499 -76.87465895 77.35618499 -73.9375 77.0625 C-72.968125 77.041875 -71.99875 77.02125 -71 77 C-69.66666667 74 -69.66666667 74 -71 71 C-72.98 71 -74.96 71 -77 71 Z " fill="#010101" transform="translate(366,341)"/>
<path d="M0 0 C3.36720387 1.39332574 4.9859524 2.9789286 7 6 C7.86625 5.5359375 7.86625 5.5359375 8.75 5.0625 C10.84904107 4.07128616 12.75074138 3.52451199 15 3 C20.51487318 9.1887162 25.78105595 15.56092739 31 22 C31.77601563 22.94230469 32.55203125 23.88460938 33.3515625 24.85546875 C34.08117187 25.74878906 34.81078125 26.64210938 35.5625 27.5625 C36.22378906 28.36816406 36.88507813 29.17382812 37.56640625 30.00390625 C39 32 39 32 39 34 C52.53 34 66.06 34 80 34 C80 36.64 80 39.28 80 42 C80.99 41.67 81.98 41.34 83 41 C83.33 38.69 83.66 36.38 84 34 C94.56 34 105.12 34 116 34 C117.60725635 37.21451269 117.05748185 40.43612536 117 44 C113.48172372 45.59245395 110.77302648 46.24261382 106.91796875 46.1953125 C105.98662109 46.18886719 105.05527344 46.18242187 104.09570312 46.17578125 C103.13599609 46.15902344 102.17628906 46.14226562 101.1875 46.125 C100.20845703 46.11597656 99.22941406 46.10695313 98.22070312 46.09765625 C95.81354939 46.07417182 93.40690257 46.0413284 91 46 C91 47.32 91 48.64 91 50 C91.81267334 50.02505615 92.62534668 50.0501123 93.46264648 50.07592773 C97.12110752 50.19149118 100.77928528 50.31439584 104.4375 50.4375 C106.3565918 50.49647461 106.3565918 50.49647461 108.31445312 50.55664062 C110.13686523 50.61948242 110.13686523 50.61948242 111.99609375 50.68359375 C113.12200928 50.72025146 114.2479248 50.75690918 115.40795898 50.79467773 C118 51 118 51 119 52 C119 55.3 119 58.6 119 62 C105.47 62 91.94 62 78 62 C78 49.625 78 49.625 79 45 C78.29488281 45.16371094 77.58976562 45.32742188 76.86328125 45.49609375 C73.90341312 46.01699824 71.18938727 46.09866732 68.1875 46.0625 C67.21167969 46.05347656 66.23585938 46.04445313 65.23046875 46.03515625 C64.12638672 46.01775391 64.12638672 46.01775391 63 46 C62.67 47.65 62.34 49.3 62 51 C65.3 51 68.6 51 72 51 C72.87890625 58.71484375 72.87890625 58.71484375 73 61 C69.51663649 64.48336351 57.70561123 62.82905131 52.98535156 62.9543457 C50.84866797 63.02577272 48.71276147 63.12774668 46.57910156 63.26196289 C29.40844054 64.32008013 29.40844054 64.32008013 23.79571533 60.49957275 C19.93603961 56.83793363 17.07230942 52.64338363 14.33120728 48.10928345 C12.12130258 44.6077135 9.4865699 41.4559555 6.875 38.25 C5.23927743 36.17477494 3.6195558 34.08792908 2 32 C1.401875 31.25234375 0.80375 30.5046875 0.1875 29.734375 C-1 28 -1 28 -0.875 26 C0.12549133 23.71316266 1.48056286 21.9711617 3 20 C2.33871094 19.18015625 1.67742187 18.3603125 0.99609375 17.515625 C0.14256194 16.42760643 -0.71026629 15.33903565 -1.5625 14.25 C-2.00013672 13.71117187 -2.43777344 13.17234375 -2.88867188 12.6171875 C-6.01607369 8.57865287 -6.01607369 8.57865287 -5.9375 5.75 C-4.52681309 3.11671777 -2.39371026 1.71856121 0 0 Z M12 19 C11.01 19.66 10.02 20.32 9 21 C9.66 22.65 10.32 24.3 11 26 C11.99 26 12.98 26 14 26 C14.66 25.34 15.32 24.68 16 24 C15.91428339 21.90708843 15.91428339 21.90708843 15 20 C14.01 19.67 13.02 19.34 12 19 Z " fill="#010101" transform="translate(142,367)"/>
<path d="M0 0 C2.97 0.66 5.94 1.32 9 2 C9.125 8.625 9.125 8.625 8 12 C8.969375 12.144375 9.93875 12.28875 10.9375 12.4375 C14 13 14 13 15 14 C14.94740275 23.52467609 12.31028979 32.69125244 9.99609375 41.85546875 C9.72667969 42.96277344 9.45726563 44.07007813 9.1796875 45.2109375 C8.92944824 46.20399902 8.67920898 47.19706055 8.42138672 48.22021484 C7.970814 51.19253292 8.1265797 53.13541094 9 56 C10.56800227 58.103206 12.12510951 60.00033425 13.875 61.9375 C14.86888019 63.08056167 15.86100963 64.22514749 16.8515625 65.37109375 C17.3662207 65.9626123 17.88087891 66.55413086 18.41113281 67.16357422 C21.07137896 70.23830862 23.68028317 73.34930737 26.25 76.5 C26.98452393 77.36226196 26.98452393 77.36226196 27.73388672 78.24194336 C29.84345218 80.85380456 31.02533641 82.33656134 30.89453125 85.76171875 C29.91735784 88.20678584 28.70333975 90.00042725 27 92 C27.5775 91.690625 28.155 91.38125 28.75 91.0625 C30.84904107 90.07128616 32.75074138 89.52451199 35 89 C40.63696054 95.12268503 46.00189582 101.3444934 51 108 C51.55816406 108.70511719 52.11632812 109.41023438 52.69140625 110.13671875 C54 112 54 112 54.0625 113.9375 C52.40648187 117.15212343 49.85737733 118.81137056 47 121 C42.99185072 117.16771102 39.57171247 113.07477678 36.1875 108.6875 C35.43436523 107.71973633 35.43436523 107.71973633 34.66601562 106.73242188 C33.44094319 105.15732875 32.2200368 103.57899684 31 102 C28.525 102.495 28.525 102.495 26 103 C30.62761292 109.47373509 35.35216685 115.76301015 40.53125 121.80859375 C42 124 42 124 42 128 C40.46875 129.484375 40.46875 129.484375 38.5 130.75 C37.8503125 131.17796875 37.200625 131.6059375 36.53125 132.046875 C36.0259375 132.36140625 35.520625 132.6759375 35 133 C30.84584372 129.01571628 27.22453362 124.73702484 23.625 120.25 C23.05571777 119.54061279 22.48643555 118.83122559 21.89990234 118.1003418 C20.77615106 116.69893711 19.6532385 115.29685937 18.53125 113.89404297 C17.2316484 112.28653193 15.90034436 110.70473255 14.5625 109.12890625 C13.923125 108.36449219 13.28375 107.60007812 12.625 106.8125 C12.08101562 106.17957031 11.53703125 105.54664063 10.9765625 104.89453125 C10 103 10 103 10.1953125 100.39453125 C11.81630695 95.57089243 16.77932389 93.41181492 21 91 C18.36113346 86.7973607 15.63559661 83.43361902 12 80 C11.01 80.33 10.02 80.66 9 81 C9.66 82.0725 10.32 83.145 11 84.25 C12.88295807 87.30980686 13 88.1335864 13 92 C7.77272727 97 7.77272727 97 5 97 C3.33699728 95.05675052 1.78735814 93.10237712 0.25 91.0625 C-4.8257377 84.45306129 -10.07374453 78.00594706 -15.40332031 71.59985352 C-15.97276367 70.91334717 -16.54220703 70.22684082 -17.12890625 69.51953125 C-17.63494385 68.91214111 -18.14098145 68.30475098 -18.66235352 67.67895508 C-22.00173762 63.48750692 -22.33953192 61.32256383 -22 56 C-21.47862656 52.89389902 -20.76890402 49.8462808 -20.03125 46.78515625 C-19.73160339 45.50154457 -19.73160339 45.50154457 -19.42590332 44.19200134 C-18.79116598 41.480408 -18.14576484 38.77148593 -17.5 36.0625 C-17.06569739 34.21566134 -16.63209629 32.36865757 -16.19921875 30.52148438 C-15.14091946 26.01237199 -14.07305424 21.50562284 -13 17 C-9.59254812 16.23713764 -7.35001838 15.88332721 -4 17 C-3.79503906 15.94039063 -3.59007813 14.88078125 -3.37890625 13.7890625 C-3.10692334 12.40101178 -2.83477956 11.01299256 -2.5625 9.625 C-2.42779297 8.92632812 -2.29308594 8.22765625 -2.15429688 7.5078125 C-1.11328125 2.2265625 -1.11328125 2.2265625 0 0 Z M-3 22 C-4.29633621 23.06645115 -4.29633621 23.06645115 -4.0625 25.5625 C-4.041875 26.366875 -4.02125 27.17125 -4 28 C-1.03 28.495 -1.03 28.495 2 29 C2.33 27.02 2.66 25.04 3 23 C1.0085944 22.61866701 -0.99279077 22.28674418 -3 22 Z " fill="#010101" transform="translate(90,241)"/>
<path d="M0 0 C1.14633901 4.89137672 2.28544677 9.78436074 3.41796875 14.67895508 C3.80401896 16.34282499 4.19202012 18.00624352 4.58203125 19.66918945 C5.14319645 22.06344659 5.69726016 24.45925439 6.25 26.85546875 C6.42499023 27.5952446 6.59998047 28.33502045 6.78027344 29.09721375 C7.62608092 32.79562717 8.20864762 36.20196129 8 40 C3.58774263 41.47075246 0.51718381 42.36884358 -4 41 C-4.33 41.66 -4.66 42.32 -5 43 C-5.99 43.495 -5.99 43.495 -7 44 C-6.855625 44.60328125 -6.71125 45.2065625 -6.5625 45.828125 C-6.376875 46.62734375 -6.19125 47.4265625 -6 48.25 C-5.814375 49.03890625 -5.62875 49.8278125 -5.4375 50.640625 C-5 53 -5 53 -5 57 C-2.03 56.505 -2.03 56.505 1 56 C0.67 52.7 0.34 49.4 0 46 C3.85257619 44.12874871 5.87951136 44.00969769 10 45 C11.12231001 49.60783955 12.24328257 54.21600167 13.36303711 58.82446289 C13.74385769 60.39095775 14.12503846 61.9573651 14.5065918 63.52368164 C15.05613247 65.77987925 15.60436122 68.03639226 16.15234375 70.29296875 C16.3221727 70.98899704 16.49200165 71.68502533 16.66697693 72.40214539 C20.50678852 88.23978301 20.50678852 88.23978301 17.95458984 92.91503906 C16.45116766 94.91093471 14.85887129 96.76755763 13.1875 98.625 C11.99348689 100.01711112 10.80080326 101.41036351 9.609375 102.8046875 C9.00544922 103.50045898 8.40152344 104.19623047 7.77929688 104.91308594 C4.58346958 108.66143003 1.60716573 112.57983201 -1.39575195 116.48291016 C-3.762852 119.52782626 -6.20513414 122.34068191 -9 125 C-9.78375 124.34 -10.5675 123.68 -11.375 123 C-13.71512812 120.79798559 -13.71512812 120.79798559 -16 121 C-17.78770907 123.1335282 -19.46872824 125.26844058 -21.125 127.5 C-21.59292969 128.12003906 -22.06085938 128.74007812 -22.54296875 129.37890625 C-23.70096609 130.91502517 -24.85121357 132.45698059 -26 134 C-28.64 132.02 -31.28 130.04 -34 128 C-33.46930939 124.17902761 -32.50298434 121.93828597 -30 119 C-30.680625 118.443125 -31.36125 117.88625 -32.0625 117.3125 C-34 115 -34 115 -33.80102539 112.59643555 C-32.94728936 109.82914427 -31.98831781 108.335676 -30.12109375 106.14453125 C-29.53271729 105.44457031 -28.94434082 104.74460937 -28.33813477 104.0234375 C-27.71092529 103.29382813 -27.08371582 102.56421875 -26.4375 101.8125 C-25.48991821 100.67748047 -25.48991821 100.67748047 -24.52319336 99.51953125 C-21.82291033 96.28763109 -19.10253479 93.08626418 -16.2578125 89.98046875 C-15.17113281 88.75263672 -15.17113281 88.75263672 -14.0625 87.5 C-13.43472656 86.8296875 -12.80695313 86.159375 -12.16015625 85.46875 C-8.55543229 77.79809161 -13.99366925 65.20413143 -15.91601562 57.41796875 C-17.2586029 51.82006249 -18.39259861 46.76368174 -18 41 C-14.535 40.505 -14.535 40.505 -11 40 C-11 39.34 -11 38.68 -11 38 C-12.32 38 -13.64 38 -15 38 C-15.33 38.66 -15.66 39.32 -16 40 C-17.89355469 39.35449219 -17.89355469 39.35449219 -20 38 C-21.00488281 35.48144531 -21.00488281 35.48144531 -21.703125 32.328125 C-21.9609375 31.18859375 -22.21875 30.0490625 -22.484375 28.875 C-22.73703125 27.67875 -22.9896875 26.4825 -23.25 25.25 C-23.518125 24.06921875 -23.78625 22.8884375 -24.0625 21.671875 C-25.24063657 16.33419501 -26.15384532 11.48714978 -26 6 C-23.03 5.34 -20.06 4.68 -17 4 C-14.45220256 12.28034166 -12.20049918 20.62246504 -10 29 C-8.68 28.67 -7.36 28.34 -6 28 C-6.48892951 23.01291901 -7.37010804 18.30830867 -8.5625 13.4375 C-9.67648066 8.78690112 -10.33225994 4.76239252 -10 0 C-6.26940301 -0.95929637 -3.73201925 -0.84676067 0 0 Z M-17.625 108.5 C-18.07875 108.995 -18.5325 109.49 -19 110 C-17.6910428 113.12197478 -17.6910428 113.12197478 -15 115 C-13.68 113.68 -12.36 112.36 -11 111 C-12.36323743 108.9600281 -12.36323743 108.9600281 -14 107 C-16.12364481 106.77390663 -16.12364481 106.77390663 -17.625 108.5 Z " fill="#010101" transform="translate(413,213)"/>
<path d="M0 0 C1.52270508 0.73959961 1.52270508 0.73959961 3.07617188 1.49414062 C4.11451172 2.01041016 5.15285156 2.52667969 6.22265625 3.05859375 C7.28806641 3.57873047 8.35347656 4.09886719 9.45117188 4.63476562 C12.06686749 5.91328949 14.67785582 7.20055853 17.28515625 8.49609375 C16.65948521 12.88186551 15.7830636 15.80353506 13.28515625 19.49609375 C7.49707117 17.78679987 2.45623093 15.06997076 -2.79296875 12.15429688 C-5.91938743 10.51054049 -8.0689303 9.50213032 -11.640625 9.46875 C-16.83607641 11.2049682 -21.53165017 13.84762766 -26.34570312 16.43359375 C-27.12107422 16.83835937 -27.89644531 17.243125 -28.6953125 17.66015625 C-29.74561646 18.22404053 -29.74561646 18.22404053 -30.81713867 18.79931641 C-32.71484375 19.49609375 -32.71484375 19.49609375 -35.71484375 18.49609375 C-37.4615736 15.00263405 -38.71484375 12.42763807 -38.71484375 8.49609375 C-35.15088261 6.74604009 -31.57642332 5.01980907 -27.9909668 3.31420898 C-26.17883847 2.44628349 -24.37545527 1.56017503 -22.57226562 0.67382812 C-21.42177734 0.12919922 -20.27128906 -0.41542969 -19.0859375 -0.9765625 C-18.0333374 -1.48453369 -16.9807373 -1.99250488 -15.89624023 -2.51586914 C-10.03985896 -4.33466854 -5.33060843 -2.62012957 0 0 Z " fill="#010101" transform="translate(260.71484375,58.50390625)"/>
<path d="M0 0 C6.4565155 2.41127851 12.74319748 5.17931471 19 8.0625 C19.754021 8.4028125 20.50804199 8.743125 21.28491211 9.09375 C21.99526611 9.42503906 22.70562012 9.75632812 23.4375 10.09765625 C24.07558594 10.39164307 24.71367187 10.68562988 25.37109375 10.98852539 C28.08028058 12.67080372 28.93657065 14.7797825 29.79370117 17.75561523 C30.60097816 21.31431528 31.40312522 24.87367009 32.1875 28.4375 C32.47302734 29.67822266 32.75855469 30.91894531 33.05273438 32.19726562 C33.31763672 33.38900391 33.58253906 34.58074219 33.85546875 35.80859375 C34.09934326 36.89970459 34.34321777 37.99081543 34.59448242 39.11499023 C35 42 35 42 34 46 C31.03 46.66 28.06 47.32 25 48 C24.90203125 47.28457031 24.8040625 46.56914062 24.703125 45.83203125 C23.20085418 32.5677068 23.20085418 32.5677068 17.25830078 21.09521484 C13.48355812 18.42459142 9.38939362 16.97092067 4.98095703 15.67724609 C1.71527288 14.56077976 -1.06272725 12.79606378 -4 11 C-3.48964169 6.6109185 -2.47785723 3.66291938 0 0 Z " fill="#010101" transform="translate(383,118)"/>
<path d="M0 0 C1.89275211 2.97432474 3.05306357 4.98341885 2.86694336 8.54907227 C2 11 2 11 -0.00952148 12.39038086 C-0.87134033 12.74495361 -1.73315918 13.09952637 -2.62109375 13.46484375 C-3.55630859 13.87283203 -4.49152344 14.28082031 -5.45507812 14.70117188 C-7.43864507 15.52343637 -9.42301816 16.34375897 -11.40820312 17.16210938 C-16.85452253 19.35543294 -16.85452253 19.35543294 -20.49609375 23.66796875 C-20.66238281 24.76753906 -20.82867187 25.86710937 -21 27 C-21.41766562 28.65672307 -21.84860951 30.31012647 -22.2890625 31.9609375 C-22.73679267 33.76502671 -23.18205231 35.56973062 -23.625 37.375 C-23.85445312 38.30183594 -24.08390625 39.22867188 -24.3203125 40.18359375 C-24.88236114 42.45520698 -25.44219469 44.72734178 -26 47 C-27.48206495 46.745504 -28.96068615 46.47088238 -30.4375 46.1875 C-31.26121094 46.03667969 -32.08492188 45.88585937 -32.93359375 45.73046875 C-33.61550781 45.48941406 -34.29742187 45.24835938 -35 45 C-37.96932788 36.09201636 -32.6988992 20.49140816 -29 12 C-25.29200845 7.51181549 -20.41641467 5.93590838 -14.91796875 4.54296875 C-12.11376379 3.74911032 -9.71554754 2.36510332 -7.1875 0.9375 C-3.36513158 -1.12171053 -3.36513158 -1.12171053 0 0 Z " fill="#010101" transform="translate(118,119)"/>
<path d="M0 0 C2.97 0.99 5.94 1.98 9 3 C8.40069663 9.11289442 7.12761126 14.89757466 5.62109375 20.8515625 C4.40530949 26.90946991 4.40530949 26.90946991 6.5390625 32.4921875 C7.22742188 33.27851563 7.91578125 34.06484375 8.625 34.875 C9.34816406 35.73222656 10.07132813 36.58945312 10.81640625 37.47265625 C11.53699219 38.30667969 12.25757812 39.14070313 13 40 C18.93209156 47.00400954 18.93209156 47.00400954 19.1875 50.75 C17.6065736 53.74543949 15.86750836 55.22487578 13 57 C9.57121945 55.85707315 9.03698015 55.07681848 6.9375 52.25 C4.79588872 49.36847581 2.63277448 46.53830135 0.3203125 43.79296875 C-0.13593506 43.23770508 -0.59218262 42.68244141 -1.06225586 42.11035156 C-1.96008068 41.01823445 -2.8719028 39.93743438 -3.79907227 38.87011719 C-6.54514601 35.46560319 -7.61299656 32.75496647 -7.34350586 28.36694336 C-6.59171719 23.18670798 -5.33712583 18.13475246 -4.0625 13.0625 C-3.78470703 11.91458984 -3.50691406 10.76667969 -3.22070312 9.58398438 C-1.14789173 1.14789173 -1.14789173 1.14789173 0 0 Z " fill="#010101" transform="translate(57,274)"/>
<path d="M0 0 C1.01527131 3.99628068 2.00942291 7.99753312 3 12 C3.28617187 13.12535156 3.57234375 14.25070312 3.8671875 15.41015625 C7.48892496 30.15580162 7.48892496 30.15580162 5.06982422 34.77685547 C3.78700792 36.60253884 2.4108207 38.26223996 0.9375 39.9375 C-0.07050466 41.14697529 -1.07831692 42.35661096 -2.0859375 43.56640625 C-2.5819043 44.14793457 -3.07787109 44.72946289 -3.58886719 45.32861328 C-5.52626315 47.62332137 -7.35883042 49.99321432 -9.1875 52.375 C-9.73792969 53.08398438 -10.28835938 53.79296875 -10.85546875 54.5234375 C-11.42201172 55.25433594 -11.42201172 55.25433594 -12 56 C-14.93446886 54.58208437 -17.43332409 53.01667393 -20 51 C-19.58626358 45.79874219 -16.83410776 42.85092931 -13.625 39 C-12.15792598 37.21200354 -10.69995244 35.42072789 -9.27197266 33.60131836 C-8.22484656 32.28306499 -7.11956019 31.01122482 -6 29.75390625 C-4.2888222 25.04148302 -6.09807573 20.64922777 -7.375 15.9375 C-7.89093022 13.96955824 -8.39907627 11.99955497 -8.8984375 10.02734375 C-9.13224121 9.15843506 -9.36604492 8.28952637 -9.60693359 7.39428711 C-10.01733884 4.89438383 -9.80253993 3.37834259 -9 1 C-5.91810344 0.08684546 -3.20344581 -0.04250011 0 0 Z " fill="#010101" transform="translate(444,275)"/>
<path d="M0 0 C3.34430737 0.72366315 5.34262343 1.81715496 8 4 C7.62814268 9.49522481 5.39636736 12.49477372 1.8125 16.4375 C1.10770508 17.23897461 1.10770508 17.23897461 0.38867188 18.05664062 C-0.57595934 19.15287227 -1.55721933 20.23466557 -2.5534668 21.30224609 C-4.05762576 22.96414735 -4.05762576 22.96414735 -5.12817383 24.95166016 C-6.58925273 27.26814075 -7.67031249 28.52549083 -10 30 C-15.46157839 30.89772501 -20.79893213 30.70405062 -26.3125 30.5 C-27.81830749 30.47343741 -29.32417294 30.44996905 -30.83007812 30.4296875 C-41.77080239 30.22919761 -41.77080239 30.22919761 -43 29 C-43.23728814 22.47457627 -43.23728814 22.47457627 -42 20 C-33.09 20 -24.18 20 -15 20 C-14.34 18.68 -13.68 17.36 -13 16 C-12.02222124 14.67635175 -11.00635735 13.38027756 -9.9609375 12.109375 C-9.38085938 11.40039062 -8.80078125 10.69140625 -8.203125 9.9609375 C-7.59984375 9.23132813 -6.9965625 8.50171875 -6.375 7.75 C-5.76398438 7.00492187 -5.15296875 6.25984375 -4.5234375 5.4921875 C-3.0189924 3.65864503 -1.51110107 1.82805754 0 0 Z " fill="#010101" transform="translate(350,415)"/>
<path d="M0 0 C4.37691162 3.18683894 7.47787785 6.81579699 10.75 11.0625 C11.24371094 11.68705078 11.73742187 12.31160156 12.24609375 12.95507812 C14.3142745 15.6097156 15.92808719 17.78426158 17 21 C25.91 21 34.82 21 44 21 C44 24.3 44 27.6 44 31 C39.58950123 31.22412628 35.18209292 31.38651489 30.76757812 31.49438477 C29.2695946 31.53938233 27.7720006 31.60060971 26.27539062 31.67895508 C13.90097206 32.31005042 13.90097206 32.31005042 9.37915039 29.19384766 C7.33151315 26.90361545 5.66361337 24.57909756 4 22 C3.01425315 20.80470816 2.01431177 19.6208799 0.99609375 18.453125 C0.14008942 17.38793221 -0.7128758 16.32028865 -1.5625 15.25 C-2.01173828 14.71246094 -2.46097656 14.17492187 -2.92382812 13.62109375 C-4.94469726 11.06153376 -6.01297501 9.57008934 -5.9375 6.25390625 C-4.65815268 3.17814206 -2.69747122 1.86748007 0 0 Z " fill="#010101" transform="translate(148,414)"/>
<path d="M0 0 C2.56671353 1.82153863 3.08142905 3.37875169 3.9375 6.375 C3.9375 7.695 3.9375 9.015 3.9375 10.375 C0.67158178 12.05143038 -2.60099107 13.71443344 -5.875 15.375 C-6.80376953 15.85195312 -7.73253906 16.32890625 -8.68945312 16.8203125 C-9.58212891 17.27148438 -10.47480469 17.72265625 -11.39453125 18.1875 C-12.21671143 18.60644531 -13.0388916 19.02539062 -13.88598633 19.45703125 C-16.0625 20.375 -16.0625 20.375 -19.0625 20.375 C-21.25982813 16.43812043 -22.24595639 13.86203763 -22.0625 9.375 C-19.29366804 7.89206418 -16.5221027 6.41431138 -13.75 4.9375 C-12.96431641 4.51662109 -12.17863281 4.09574219 -11.36914062 3.66210938 C-10.61181641 3.25927734 -9.85449219 2.85644531 -9.07421875 2.44140625 C-8.37772217 2.06959229 -7.68122559 1.69777832 -6.96362305 1.31469727 C-2.66810211 -0.80851579 -2.66810211 -0.80851579 0 0 Z " fill="#010101" transform="translate(149.0625,103.625)"/>
<path d="M0 0 C8.0853288 2.93846035 15.50412838 6.81735063 23 11 C22.31620454 14.95008059 21.21156817 17.63457018 19 21 C10.82175048 18.60292686 3.53348722 14.91141228 -4 11 C-3.27758802 6.88295306 -1.97646289 3.69512628 0 0 Z " fill="#010101" transform="translate(287,72)"/>
<path d="M0 0 C1.15227823 0.76116551 2.2966386 1.53432693 3.4375 2.3125 C4.07558594 2.74175781 4.71367187 3.17101562 5.37109375 3.61328125 C7 5 7 5 8 8 C6.53361065 10.24148087 5.0592206 12.24592848 3.375 14.3125 C2.93542969 14.86873047 2.49585938 15.42496094 2.04296875 15.99804688 C-0.90939437 19.71663914 -3.95022204 23.3611855 -7 27 C-13.09411765 24.85882353 -13.09411765 24.85882353 -15 22 C-14.6054728 18.0194653 -13.39996922 15.81437809 -10.83984375 12.79296875 C-9.8972168 11.66665039 -9.8972168 11.66665039 -8.93554688 10.51757812 C-8.27619141 9.74865234 -7.61683594 8.97972656 -6.9375 8.1875 C-6.27427734 7.39923828 -5.61105469 6.61097656 -4.92773438 5.79882812 C-3.29333002 3.85870785 -1.65068133 1.92627113 0 0 Z " fill="#010101" transform="translate(417,331)"/>
<path d="M0 0 C2.37082092 0.3089715 3.67877414 0.69695467 5.43212891 2.35107422 C5.85929199 2.9132666 6.28645508 3.47545898 6.7265625 4.0546875 C7.2009375 4.66957031 7.6753125 5.28445313 8.1640625 5.91796875 C8.64617187 6.56378906 9.12828125 7.20960938 9.625 7.875 C10.11484375 8.51308594 10.6046875 9.15117187 11.109375 9.80859375 C17 17.51790898 17 17.51790898 17 22 C14.75 24.3125 14.75 24.3125 12 26 C9.41229593 25.7686861 8.26744219 25.25155493 6.3684082 23.46533203 C5.85109131 22.81935059 5.33377441 22.17336914 4.80078125 21.5078125 C4.23166016 20.80269531 3.66253906 20.09757812 3.07617188 19.37109375 C2.2031543 18.25927734 2.2031543 18.25927734 1.3125 17.125 C0.71888672 16.39152344 0.12527344 15.65804688 -0.48632812 14.90234375 C-4.85626631 9.43120108 -4.85626631 9.43120108 -6 6 C-4 4 -2 2 0 0 Z " fill="#010101" transform="translate(125,387)"/>
<path d="M0 0 C0.8693381 3.41299009 1.71779224 6.83083808 2.5625 10.25 C2.80935547 11.21808594 3.05621094 12.18617188 3.31054688 13.18359375 C3.53935547 14.11816406 3.76816406 15.05273438 4.00390625 16.015625 C4.21861572 16.87446289 4.4333252 17.73330078 4.65454102 18.61816406 C5.01954202 21.13473634 4.9419327 22.6456563 4 25 C0.70173093 26.78284814 -1.1774751 27 -5 27 C-5.84725421 23.8160367 -6.67522972 20.62735477 -7.5 17.4375 C-7.73847656 16.54224609 -7.97695313 15.64699219 -8.22265625 14.72460938 C-9.52068558 9.66229498 -10.2867289 5.22563428 -10 0 C-6.26940301 -0.95929637 -3.73201925 -0.84676067 0 0 Z " fill="#010101" transform="translate(421,173)"/>
<path d="M0 0 C4.455 0.99 4.455 0.99 9 2 C9.98039406 5.92157623 9.96862318 7.16733919 9.07421875 10.9140625 C8.85443359 11.83960938 8.63464844 12.76515625 8.40820312 13.71875 C8.17037109 14.6778125 7.93253906 15.636875 7.6875 16.625 C7.46126953 17.59179688 7.23503906 18.55859375 7.00195312 19.5546875 C5.26108151 26.73891849 5.26108151 26.73891849 3 29 C1.0546875 28.7578125 1.0546875 28.7578125 -1.125 28.125 C-1.84945312 27.92132813 -2.57390625 27.71765625 -3.3203125 27.5078125 C-3.87460937 27.34023438 -4.42890625 27.17265625 -5 27 C-4.41117785 17.72605107 -2.24113144 8.9853735 0 0 Z " fill="#020202" transform="translate(64,240)"/>
<path d="M0 0 C8.25 0 16.5 0 25 0 C25 3.3 25 6.6 25 10 C20.85418113 10.02886751 16.70838784 10.04675327 12.5625 10.0625 C10.78649414 10.07506836 10.78649414 10.07506836 8.97460938 10.08789062 C7.84990234 10.09111328 6.72519531 10.09433594 5.56640625 10.09765625 C4.00321655 10.10551147 4.00321655 10.10551147 2.40844727 10.11352539 C0 10 0 10 -1 9 C-1.23728814 2.47457627 -1.23728814 2.47457627 0 0 Z " fill="#010101" transform="translate(273,435)"/>
<path d="M0 0 C4.85963179 0.60745397 8.7405518 2.72758967 13 5 C12.39301257 9.12751449 10.96189209 12.3321148 9 16 C4.76570244 14.68938409 0.92592596 13.05643741 -3 11 C-2.44894091 7.0507432 -1.61064629 3.65079826 0 0 Z " fill="#010101" transform="translate(350,103)"/>
<path d="M0 0 C4.22435427 1.56457565 6.49058647 4.343426 9 8 C9.125 10.625 9.125 10.625 8 13 C5.4375 15.3125 5.4375 15.3125 3 17 C-1.22434114 15.43542921 -3.44526698 12.61920511 -6 9 C-6.6875 6.375 -6.6875 6.375 -6 4 C-3 1.6875 -3 1.6875 0 0 Z " fill="#010101" transform="translate(89,341)"/>
<path d="M0 0 C3.06293543 2.97878885 4.90454757 5.09095142 5.125 9.5 C3.56177325 12.97383723 1.36932196 13.73166337 -1.9921875 15.30078125 C-4 16 -4 16 -7 16 C-7.69965443 14.73581754 -8.38434763 13.46334598 -9.0625 12.1875 C-9.44535156 11.47980469 -9.82820312 10.77210937 -10.22265625 10.04296875 C-11 8 -11 8 -10 5 C-7.71484375 3.61328125 -7.71484375 3.61328125 -4.9375 2.3125 C-4.01839844 1.87550781 -3.09929687 1.43851562 -2.15234375 0.98828125 C-1.08693359 0.49908203 -1.08693359 0.49908203 0 0 Z " fill="#010101" transform="translate(201,77)"/>
<path d="M0 0 C3.3 0.66 6.6 1.32 10 2 C9.51573772 7.3268851 8.93400486 11.97158737 7 17 C-0.875 16.125 -0.875 16.125 -2 15 C-2.33228375 9.57269868 -1.4516516 5.17150883 0 0 Z " fill="#020202" transform="translate(77,183)"/>
<path d="M0 0 C3.34129034 0.75810789 5.52736314 1.52736314 8 4 C8.44545817 7.17654098 8.29779153 8.5647078 6.46875 11.23828125 C5.8190625 11.92277344 5.169375 12.60726563 4.5 13.3125 C3.8503125 14.00988281 3.200625 14.70726562 2.53125 15.42578125 C1.77328125 16.20501953 1.77328125 16.20501953 1 17 C-1.93446886 15.58208437 -4.43332409 14.01667393 -7 12 C-6.38801624 8.56049636 -5.07941153 6.48435515 -2.9375 3.75 C-2.38964844 3.04359375 -1.84179688 2.3371875 -1.27734375 1.609375 C-0.85582031 1.07828125 -0.43429687 0.5471875 0 0 Z " fill="#010101" transform="translate(372,387)"/>
<path d="M0 0 C0.53469802 1.72492978 1.05219175 3.455198 1.5625 5.1875 C1.85253906 6.15042969 2.14257812 7.11335937 2.44140625 8.10546875 C3.02461026 11.12752588 2.81178385 13.05929955 2 16 C-0.97 16.33 -3.94 16.66 -7 17 C-8.46670113 11.77487721 -9.22577402 7.4185766 -9 2 C-2.25 0 -2.25 0 0 0 Z " fill="#020202" transform="translate(436,240)"/>
<path d="M0 0 C2.14576637 -0.02685938 4.29162645 -0.04633088 6.4375 -0.0625 C7.63246094 -0.07410156 8.82742187 -0.08570313 10.05859375 -0.09765625 C13 0 13 0 14 1 C14.1328125 2.8125 14.1328125 2.8125 14.125 5 C14.12757813 5.721875 14.13015625 6.44375 14.1328125 7.1875 C14 9 14 9 13 10 C10.81360547 10.07258946 8.62499611 10.08373783 6.4375 10.0625 C4.64119141 10.04896484 4.64119141 10.04896484 2.80859375 10.03515625 C1.88175781 10.02355469 0.95492187 10.01195312 0 10 C0 6.7 0 3.4 0 0 Z " fill="#010101" transform="translate(214,435)"/>
<path d="M0 0 C-2.82379341 4.23569011 -6.0507359 4.57624693 -10.875 5.625 C-11.57625 5.74875 -12.2775 5.8725 -13 6 C-12 3 -12 3 -10.29296875 1.796875 C-9.59816406 1.45140625 -8.90335937 1.1059375 -8.1875 0.75 C-7.50042969 0.39421875 -6.81335938 0.0384375 -6.10546875 -0.328125 C-3.64922558 -1.11193544 -2.39957614 -0.84119973 0 0 Z " fill="#090909" transform="translate(113,122)"/>
<path d="M0 0 C4.08378283 0.74250597 8.01939223 1.82923301 12 3 C11.67 3.66 11.34 4.32 11 5 C9.02 5 7.04 5 5 5 C5 4.34 5 3.68 5 3 C4.360625 2.87625 3.72125 2.7525 3.0625 2.625 C2.381875 2.41875 1.70125 2.2125 1 2 C0.67 1.34 0.34 0.68 0 0 Z " fill="#363636" transform="translate(96,194)"/>
<path d="M0 0 C-1.97420135 2.52259061 -2.96745642 2.9929808 -6.1875 3.6875 C-7.5796875 3.8421875 -7.5796875 3.8421875 -9 4 C-9 2.68 -9 1.36 -9 0 C-5.62182575 -0.84454356 -3.32534757 -1.10844919 0 0 Z " fill="#121212" transform="translate(420,173)"/>
<path d="M0 0 C0 0.66 0 1.32 0 2 C-2.90548882 4.04169485 -4.40142046 5 -8 5 C-8 3.68 -8 2.36 -8 1 C-5.23735711 0.40267181 -2.83967231 0 0 0 Z " fill="#0F0F0F" transform="translate(411,212)"/>
<path d="M0 0 C-0.66 1.32 -1.32 2.64 -2 4 C-3.65 4 -5.3 4 -7 4 C-7 3.01 -7 2.02 -7 1 C-4.53721199 -0.231394 -2.7204945 -0.07159196 0 0 Z " fill="#131313" transform="translate(444,275)"/>
</svg>
